<svg width="92" height="16" viewBox="0 0 92 16" fill="none" xmlns="http://www.w3.org/2000/svg">
<path d="M10.78 1.06V15H8.96V8.68H1.86V15H0.0400001V1.06H1.86V7.18H8.96V1.06H10.78ZM23.8877 9.1C23.8877 9.44667 23.8677 9.81333 23.8277 10.2H15.0677C15.1343 11.28 15.501 12.1267 16.1677 12.74C16.8477 13.34 17.6677 13.64 18.6277 13.64C19.4143 13.64 20.0677 13.46 20.5877 13.1C21.121 12.7267 21.4943 12.2333 21.7077 11.62H23.6677C23.3743 12.6733 22.7877 13.5333 21.9077 14.2C21.0277 14.8533 19.9343 15.18 18.6277 15.18C17.5877 15.18 16.6543 14.9467 15.8277 14.48C15.0143 14.0133 14.3743 13.3533 13.9077 12.5C13.441 11.6333 13.2077 10.6333 13.2077 9.5C13.2077 8.36667 13.4343 7.37333 13.8877 6.52C14.341 5.66667 14.9743 5.01333 15.7877 4.56C16.6143 4.09333 17.561 3.86 18.6277 3.86C19.6677 3.86 20.5877 4.08667 21.3877 4.54C22.1877 4.99333 22.801 5.62 23.2277 6.42C23.6677 7.20667 23.8877 8.1 23.8877 9.1ZM22.0077 8.72C22.0077 8.02667 21.8543 7.43333 21.5477 6.94C21.241 6.43333 20.821 6.05333 20.2877 5.8C19.7677 5.53333 19.1877 5.4 18.5477 5.4C17.6277 5.4 16.841 5.69333 16.1877 6.28C15.5477 6.86667 15.181 7.68 15.0877 8.72H22.0077ZM25.61 9.48C25.61 8.36 25.8367 7.38 26.29 6.54C26.7433 5.68667 27.3633 5.02667 28.15 4.56C28.95 4.09333 29.8367 3.86 30.81 3.86C31.77 3.86 32.6033 4.06667 33.31 4.48C34.0167 4.89333 34.5433 5.41333 34.89 6.04V4.04H36.73V15H34.89V12.96C34.53 13.6 33.99 14.1333 33.27 14.56C32.5633 14.9733 31.7367 15.18 30.79 15.18C29.8167 15.18 28.9367 14.94 28.15 14.46C27.3633 13.98 26.7433 13.3067 26.29 12.44C25.8367 11.5733 25.61 10.5867 25.61 9.48ZM34.89 9.5C34.89 8.67333 34.7233 7.95333 34.39 7.34C34.0567 6.72667 33.6033 6.26 33.03 5.94C32.47 5.60667 31.85 5.44 31.17 5.44C30.49 5.44 29.87 5.6 29.31 5.92C28.75 6.24 28.3033 6.70667 27.97 7.32C27.6367 7.93333 27.47 8.65333 27.47 9.48C27.47 10.32 27.6367 11.0533 27.97 11.68C28.3033 12.2933 28.75 12.7667 29.31 13.1C29.87 13.42 30.49 13.58 31.17 13.58C31.85 13.58 32.47 13.42 33.03 13.1C33.6033 12.7667 34.0567 12.2933 34.39 11.68C34.7233 11.0533 34.89 10.3267 34.89 9.5ZM41.6256 0.2V15H39.8056V0.2H41.6256ZM46.9475 5.54V12C46.9475 12.5333 47.0608 12.9133 47.2875 13.14C47.5142 13.3533 47.9075 13.46 48.4675 13.46H49.8075V15H48.1675C47.1542 15 46.3942 14.7667 45.8875 14.3C45.3808 13.8333 45.1275 13.0667 45.1275 12V5.54H43.7075V4.04H45.1275V1.28H46.9475V4.04H49.8075V5.54H46.9475ZM57.4527 3.84C58.2793 3.84 59.026 4.02 59.6927 4.38C60.3593 4.72667 60.8793 5.25333 61.2527 5.96C61.6393 6.66667 61.8327 7.52667 61.8327 8.54V15H60.0327V8.8C60.0327 7.70667 59.7593 6.87333 59.2127 6.3C58.666 5.71333 57.9193 5.42 56.9727 5.42C56.0127 5.42 55.246 5.72 54.6727 6.32C54.1127 6.92 53.8327 7.79333 53.8327 8.94V15H52.0127V0.2H53.8327V5.6C54.1927 5.04 54.686 4.60667 55.3127 4.3C55.9527 3.99333 56.666 3.84 57.4527 3.84Z" fill="#6B7280"/>
<path d="M74.1256 5.14C74.1256 6.3 73.7256 7.26667 72.9256 8.04C72.139 8.8 70.9323 9.18 69.3056 9.18H66.6256V15H64.8056V1.06H69.3056C70.879 1.06 72.0723 1.44 72.8856 2.2C73.7123 2.96 74.1256 3.94 74.1256 5.14ZM69.3056 7.68C70.319 7.68 71.0656 7.46 71.5456 7.02C72.0256 6.58 72.2656 5.95333 72.2656 5.14C72.2656 3.42 71.279 2.56 69.3056 2.56H66.6256V7.68H69.3056ZM75.7077 9.48C75.7077 8.36 75.9343 7.38 76.3877 6.54C76.841 5.68667 77.461 5.02667 78.2477 4.56C79.0477 4.09333 79.9343 3.86 80.9077 3.86C81.8677 3.86 82.701 4.06667 83.4077 4.48C84.1143 4.89333 84.641 5.41333 84.9877 6.04V4.04H86.8277V15H84.9877V12.96C84.6277 13.6 84.0877 14.1333 83.3677 14.56C82.661 14.9733 81.8343 15.18 80.8877 15.18C79.9143 15.18 79.0343 14.94 78.2477 14.46C77.461 13.98 76.841 13.3067 76.3877 12.44C75.9343 11.5733 75.7077 10.5867 75.7077 9.48ZM84.9877 9.5C84.9877 8.67333 84.821 7.95333 84.4877 7.34C84.1543 6.72667 83.701 6.26 83.1277 5.94C82.5677 5.60667 81.9477 5.44 81.2677 5.44C80.5877 5.44 79.9677 5.6 79.4077 5.92C78.8477 6.24 78.401 6.70667 78.0677 7.32C77.7343 7.93333 77.5677 8.65333 77.5677 9.48C77.5677 10.32 77.7343 11.0533 78.0677 11.68C78.401 12.2933 78.8477 12.7667 79.4077 13.1C79.9677 13.42 80.5877 13.58 81.2677 13.58C81.9477 13.58 82.5677 13.42 83.1277 13.1C83.701 12.7667 84.1543 12.2933 84.4877 11.68C84.821 11.0533 84.9877 10.3267 84.9877 9.5ZM91.7233 0.2V15H89.9033V0.2H91.7233Z" fill="#111928"/>
</svg>
